# xmcd
#
# Track frame offsets: 
#        150
#        25112
#        63200
#        100180
#        147087
#        167632
#        192705
#        239667
#        265435
#
# Disc length: 3937 seconds
#
# Revision: 0
# Processed by: cddbd v1.5.2PL0 Copyright (c) Steve Scherf et al.
# Submitted via: ExactAudioCopyFreeDBPlugin 1.0
#
DISCID=7f0f5f09
DTITLE=Gary Moore - 1984 - We Want Moore!
DYEAR=1984
DGENRE=
TTITLE0=Murder In The Skies
TTITLE1=Shapes Of Things
TTITLE2=Victims Of The Future
TTITLE3=Cold Hearted
TTITLE4=End Of The World
TTITLE5=Back On The Streets
TTITLE6=So Far Away - Empty Rooms
TTITLE7=Don't Take Me For A Loser
TTITLE8=Rockin' And Rollin'
EXTD=
EXTT0=
EXTT1=
EXTT2=
EXTT3=
EXTT4=
EXTT5=
EXTT6=
EXTT7=
EXTT8=
PLAYORDER=
